<svg xmlns="http://www.w3.org/2000/svg" xmlns:xlink="http://www.w3.org/1999/xlink" width="900" zoomAndPan="magnify" viewBox="0 0 675 149.999998" height="200" preserveAspectRatio="xMidYMid meet" version="1.0"><defs><g/><clipPath id="78e1685b0f"><path d="M 113.175781 78.40625 L 130.011719 78.40625 L 130.011719 95.242188 L 113.175781 95.242188 Z M 113.175781 78.40625 " clip-rule="nonzero"/></clipPath></defs><path fill="#c5553c" d="M 161.1875 81.414062 C 159.070312 62.234375 143.851562 47.015625 124.675781 44.898438 L 124.675781 35.425781 L 115.476562 35.425781 L 115.476562 44.898438 C 96.300781 47.015625 81.078125 62.234375 78.964844 81.414062 L 69.488281 81.414062 L 69.488281 90.609375 L 78.964844 90.609375 C 81.078125 109.785156 96.300781 125.007812 115.476562 127.125 L 115.476562 136.597656 L 124.675781 136.597656 L 124.675781 127.125 C 143.851562 125.007812 159.070312 109.785156 161.1875 90.609375 L 170.660156 90.609375 L 170.660156 81.414062 Z M 120.074219 118.203125 C 102.300781 118.203125 87.886719 103.785156 87.886719 86.011719 C 87.886719 68.238281 102.300781 53.820312 120.074219 53.820312 C 137.847656 53.820312 152.265625 68.238281 152.265625 86.011719 C 152.265625 103.785156 137.847656 118.203125 120.074219 118.203125 Z M 120.074219 118.203125 " fill-opacity="1" fill-rule="nonzero"/><g fill="#575655" fill-opacity="1"><g transform="translate(175.348457, 72.000905)"><g><path d="M 59.664062 -56.824219 L 2.839844 -56.824219 L 2.839844 -45.457031 L 25.570312 -45.457031 L 25.570312 0 L 36.933594 0 L 36.933594 -45.457031 L 59.664062 -45.457031 Z M 59.664062 -56.824219 "/></g></g></g><g fill="#575655" fill-opacity="1"><g transform="translate(237.851112, 72.000905)"><g><path d="M 14.207031 -56.824219 C 7.957031 -56.824219 2.839844 -51.707031 2.839844 -45.457031 L 2.839844 0 L 14.207031 0 L 14.207031 -22.730469 L 48.300781 -22.730469 L 48.300781 0 L 59.664062 0 L 59.664062 -45.457031 C 59.664062 -51.707031 54.550781 -56.824219 48.300781 -56.824219 Z M 14.207031 -45.457031 L 48.300781 -45.457031 L 48.300781 -34.09375 L 14.207031 -34.09375 Z M 14.207031 -45.457031 "/></g></g></g><g fill="#575655" fill-opacity="1"><g transform="translate(300.353767, 72.000905)"><g><path d="M 59.664062 -56.824219 L 14.207031 -56.824219 C 7.957031 -56.824219 2.839844 -51.707031 2.839844 -45.457031 L 2.839844 -34.09375 C 2.839844 -27.84375 7.957031 -22.730469 14.207031 -22.730469 L 48.300781 -22.730469 L 48.300781 -11.363281 L 2.839844 -11.363281 L 2.839844 0 L 48.300781 0 C 54.550781 0 59.664062 -5.113281 59.664062 -11.363281 L 59.664062 -22.730469 C 59.664062 -28.980469 54.550781 -34.09375 48.300781 -34.09375 L 14.207031 -34.09375 L 14.207031 -45.457031 L 59.664062 -45.457031 Z M 59.664062 -56.824219 "/></g></g></g><g fill="#575655" fill-opacity="1"><g transform="translate(362.856422, 72.000905)"><g><path d="M 59.664062 -56.824219 L 46.027344 -56.824219 C 44.464844 -56.824219 43.042969 -56.253906 41.90625 -55.117188 L 20.882812 -34.09375 L 14.207031 -34.09375 L 14.207031 -56.824219 L 2.839844 -56.824219 L 2.839844 0 L 14.207031 0 L 14.207031 -22.730469 L 20.882812 -22.730469 L 41.90625 -1.703125 C 43.042969 -0.566406 44.464844 0 46.027344 0 L 59.664062 0 L 59.664062 -11.363281 L 48.300781 -11.363281 L 31.253906 -28.410156 L 48.300781 -45.457031 L 59.664062 -45.457031 Z M 59.664062 -56.824219 "/></g></g></g><g fill="#575655" fill-opacity="1"><g transform="translate(175.348457, 135.602752)"><g><path d="M 59.664062 -56.824219 L 2.839844 -56.824219 L 2.839844 -45.457031 L 25.570312 -45.457031 L 25.570312 0 L 36.933594 0 L 36.933594 -45.457031 L 59.664062 -45.457031 Z M 59.664062 -56.824219 "/></g></g></g><g fill="#575655" fill-opacity="1"><g transform="translate(237.851112, 135.602752)"><g><path d="M 59.664062 -45.457031 C 59.664062 -51.707031 54.550781 -56.824219 48.300781 -56.824219 L 2.839844 -56.824219 L 2.839844 0 L 14.207031 0 L 14.207031 -22.730469 L 20.882812 -22.730469 L 41.90625 -1.703125 C 43.042969 -0.566406 44.464844 0 46.027344 0 L 59.664062 0 L 59.664062 -11.363281 L 48.300781 -11.363281 L 36.933594 -22.730469 L 48.300781 -22.730469 C 54.550781 -22.730469 59.664062 -27.84375 59.664062 -34.09375 Z M 48.300781 -45.457031 L 48.300781 -34.09375 L 14.207031 -34.09375 L 14.207031 -45.457031 Z M 48.300781 -45.457031 "/></g></g></g><g fill="#575655" fill-opacity="1"><g transform="translate(300.353767, 135.602752)"><g><path d="M 14.207031 -56.824219 C 7.957031 -56.824219 2.839844 -51.707031 2.839844 -45.457031 L 2.839844 0 L 14.207031 0 L 14.207031 -22.730469 L 48.300781 -22.730469 L 48.300781 0 L 59.664062 0 L 59.664062 -45.457031 C 59.664062 -51.707031 54.550781 -56.824219 48.300781 -56.824219 Z M 14.207031 -45.457031 L 48.300781 -45.457031 L 48.300781 -34.09375 L 14.207031 -34.09375 Z M 14.207031 -45.457031 "/></g></g></g><g fill="#575655" fill-opacity="1"><g transform="translate(362.856422, 135.602752)"><g><path d="M 59.664062 0 L 59.664062 -11.363281 L 14.207031 -11.363281 L 14.207031 -45.457031 L 59.664062 -45.457031 L 59.664062 -56.824219 L 14.207031 -56.824219 C 7.957031 -56.824219 2.839844 -51.707031 2.839844 -45.457031 L 2.839844 -11.363281 C 2.839844 -5.113281 7.957031 0 14.207031 0 Z M 59.664062 0 "/></g></g></g><g fill="#575655" fill-opacity="1"><g transform="translate(425.359078, 135.602752)"><g><path d="M 59.664062 -56.824219 L 46.027344 -56.824219 C 44.464844 -56.824219 43.042969 -56.253906 41.90625 -55.117188 L 20.882812 -34.09375 L 14.207031 -34.09375 L 14.207031 -56.824219 L 2.839844 -56.824219 L 2.839844 0 L 14.207031 0 L 14.207031 -22.730469 L 20.882812 -22.730469 L 41.90625 -1.703125 C 43.042969 -0.566406 44.464844 0 46.027344 0 L 59.664062 0 L 59.664062 -11.363281 L 48.300781 -11.363281 L 31.253906 -28.410156 L 48.300781 -45.457031 L 59.664062 -45.457031 Z M 59.664062 -56.824219 "/></g></g></g><g fill="#575655" fill-opacity="1"><g transform="translate(487.861733, 135.602752)"><g><path d="M 59.664062 -56.824219 L 14.207031 -56.824219 C 7.957031 -56.824219 2.839844 -51.707031 2.839844 -45.457031 L 2.839844 -11.363281 C 2.839844 -5.113281 7.957031 0 14.207031 0 L 59.664062 0 L 59.664062 -11.363281 L 14.207031 -11.363281 L 14.207031 -22.730469 L 59.664062 -22.730469 L 59.664062 -34.09375 L 14.207031 -34.09375 L 14.207031 -45.457031 L 59.664062 -45.457031 Z M 59.664062 -56.824219 "/></g></g></g><g fill="#575655" fill-opacity="1"><g transform="translate(550.364388, 135.602752)"><g><path d="M 59.664062 -45.457031 C 59.664062 -51.707031 54.550781 -56.824219 48.300781 -56.824219 L 2.839844 -56.824219 L 2.839844 0 L 14.207031 0 L 14.207031 -22.730469 L 20.882812 -22.730469 L 41.90625 -1.703125 C 43.042969 -0.566406 44.464844 0 46.027344 0 L 59.664062 0 L 59.664062 -11.363281 L 48.300781 -11.363281 L 36.933594 -22.730469 L 48.300781 -22.730469 C 54.550781 -22.730469 59.664062 -27.84375 59.664062 -34.09375 Z M 48.300781 -45.457031 L 48.300781 -34.09375 L 14.207031 -34.09375 L 14.207031 -45.457031 Z M 48.300781 -45.457031 "/></g></g></g><g clip-path="url(#78e1685b0f)"><path fill="#c5553c" d="M 130.011719 86.824219 C 130.011719 87.375 129.957031 87.921875 129.851562 88.464844 C 129.742188 89.007812 129.582031 89.535156 129.371094 90.042969 C 129.160156 90.554688 128.898438 91.039062 128.59375 91.5 C 128.285156 91.960938 127.9375 92.386719 127.546875 92.777344 C 127.15625 93.167969 126.730469 93.515625 126.269531 93.824219 C 125.8125 94.128906 125.324219 94.390625 124.816406 94.601562 C 124.304688 94.8125 123.777344 94.972656 123.234375 95.078125 C 122.695312 95.1875 122.144531 95.242188 121.59375 95.242188 C 121.039062 95.242188 120.492188 95.1875 119.953125 95.078125 C 119.410156 94.972656 118.882812 94.8125 118.371094 94.601562 C 117.863281 94.390625 117.375 94.128906 116.917969 93.824219 C 116.457031 93.515625 116.03125 93.167969 115.640625 92.777344 C 115.25 92.386719 114.902344 91.960938 114.59375 91.5 C 114.289062 91.039062 114.027344 90.554688 113.816406 90.042969 C 113.605469 89.535156 113.445312 89.007812 113.335938 88.464844 C 113.230469 87.921875 113.175781 87.375 113.175781 86.824219 C 113.175781 86.269531 113.230469 85.722656 113.335938 85.179688 C 113.445312 84.640625 113.605469 84.113281 113.816406 83.601562 C 114.027344 83.089844 114.289062 82.605469 114.59375 82.148438 C 114.902344 81.6875 115.25 81.261719 115.640625 80.871094 C 116.03125 80.480469 116.457031 80.132812 116.917969 79.824219 C 117.375 79.515625 117.863281 79.257812 118.371094 79.046875 C 118.882812 78.835938 119.410156 78.675781 119.953125 78.566406 C 120.492188 78.460938 121.039062 78.40625 121.59375 78.40625 C 122.144531 78.40625 122.695312 78.460938 123.234375 78.566406 C 123.777344 78.675781 124.304688 78.835938 124.816406 79.046875 C 125.324219 79.257812 125.8125 79.515625 126.269531 79.824219 C 126.730469 80.132812 127.15625 80.480469 127.546875 80.871094 C 127.9375 81.261719 128.285156 81.6875 128.59375 82.148438 C 128.898438 82.605469 129.160156 83.089844 129.371094 83.601562 C 129.582031 84.113281 129.742188 84.640625 129.851562 85.179688 C 129.957031 85.722656 130.011719 86.269531 130.011719 86.824219 Z M 130.011719 86.824219 " fill-opacity="1" fill-rule="nonzero"/></g></svg>