<svg xmlns="http://www.w3.org/2000/svg" xmlns:xlink="http://www.w3.org/1999/xlink" width="800" zoomAndPan="magnify" viewBox="0 0 600 149.999998" height="200" preserveAspectRatio="xMidYMid meet" version="1.0"><defs><g/><clipPath id="2b370a6fc4"><path d="M 53.882812 11 L 103.449219 11 L 103.449219 98.660156 L 53.882812 98.660156 Z M 53.882812 11 " clip-rule="nonzero"/></clipPath></defs><path fill="#575655" d="M 119.535156 87.011719 C 117.378906 67.46875 101.863281 51.957031 82.320312 49.800781 L 82.320312 40.148438 L 72.949219 40.148438 L 72.949219 49.800781 C 53.40625 51.957031 37.894531 67.46875 35.738281 87.011719 L 26.082031 87.011719 L 26.082031 96.386719 L 35.738281 96.386719 C 37.894531 115.929688 53.40625 131.441406 72.949219 133.597656 L 72.949219 143.25 L 82.320312 143.25 L 82.320312 133.597656 C 101.863281 131.441406 117.378906 115.929688 119.535156 96.386719 L 129.1875 96.386719 L 129.1875 87.011719 Z M 77.636719 124.503906 C 59.523438 124.503906 44.828125 109.8125 44.828125 91.699219 C 44.828125 73.585938 59.523438 58.894531 77.636719 58.894531 C 95.75 58.894531 110.441406 73.585938 110.441406 91.699219 C 110.441406 109.8125 95.75 124.503906 77.636719 124.503906 Z M 77.636719 124.503906 " fill-opacity="1" fill-rule="nonzero"/><g fill="#575655" fill-opacity="1"><g transform="translate(133.96494, 77.42067)"><g><path d="M 60.804688 -57.910156 L 2.894531 -57.910156 L 2.894531 -46.328125 L 26.058594 -46.328125 L 26.058594 0 L 37.640625 0 L 37.640625 -46.328125 L 60.804688 -46.328125 Z M 60.804688 -57.910156 "/></g></g></g><g fill="#575655" fill-opacity="1"><g transform="translate(197.662366, 77.42067)"><g><path d="M 14.476562 -57.910156 C 8.105469 -57.910156 2.894531 -52.695312 2.894531 -46.328125 L 2.894531 0 L 14.476562 0 L 14.476562 -23.164062 L 49.222656 -23.164062 L 49.222656 0 L 60.804688 0 L 60.804688 -46.328125 C 60.804688 -52.695312 55.59375 -57.910156 49.222656 -57.910156 Z M 14.476562 -46.328125 L 49.222656 -46.328125 L 49.222656 -34.746094 L 14.476562 -34.746094 Z M 14.476562 -46.328125 "/></g></g></g><g fill="#575655" fill-opacity="1"><g transform="translate(261.359792, 77.42067)"><g><path d="M 60.804688 -57.910156 L 14.476562 -57.910156 C 8.105469 -57.910156 2.894531 -52.695312 2.894531 -46.328125 L 2.894531 -34.746094 C 2.894531 -28.375 8.105469 -23.164062 14.476562 -23.164062 L 49.222656 -23.164062 L 49.222656 -11.582031 L 2.894531 -11.582031 L 2.894531 0 L 49.222656 0 C 55.59375 0 60.804688 -5.210938 60.804688 -11.582031 L 60.804688 -23.164062 C 60.804688 -29.535156 55.59375 -34.746094 49.222656 -34.746094 L 14.476562 -34.746094 L 14.476562 -46.328125 L 60.804688 -46.328125 Z M 60.804688 -57.910156 "/></g></g></g><g fill="#575655" fill-opacity="1"><g transform="translate(325.057219, 77.42067)"><g><path d="M 60.804688 -57.910156 L 46.90625 -57.910156 C 45.3125 -57.910156 43.867188 -57.328125 42.707031 -56.171875 L 21.28125 -34.746094 L 14.476562 -34.746094 L 14.476562 -57.910156 L 2.894531 -57.910156 L 2.894531 0 L 14.476562 0 L 14.476562 -23.164062 L 21.28125 -23.164062 L 42.707031 -1.738281 C 43.867188 -0.578125 45.3125 0 46.90625 0 L 60.804688 0 L 60.804688 -11.582031 L 49.222656 -11.582031 L 31.851562 -28.953125 L 49.222656 -46.328125 L 60.804688 -46.328125 Z M 60.804688 -57.910156 "/></g></g></g><g fill="#575655" fill-opacity="1"><g transform="translate(133.96494, 142.238299)"><g><path d="M 60.804688 -57.910156 L 2.894531 -57.910156 L 2.894531 -46.328125 L 26.058594 -46.328125 L 26.058594 0 L 37.640625 0 L 37.640625 -46.328125 L 60.804688 -46.328125 Z M 60.804688 -57.910156 "/></g></g></g><g fill="#575655" fill-opacity="1"><g transform="translate(197.662366, 142.238299)"><g><path d="M 60.804688 -46.328125 C 60.804688 -52.695312 55.59375 -57.910156 49.222656 -57.910156 L 2.894531 -57.910156 L 2.894531 0 L 14.476562 0 L 14.476562 -23.164062 L 21.28125 -23.164062 L 42.707031 -1.738281 C 43.867188 -0.578125 45.3125 0 46.90625 0 L 60.804688 0 L 60.804688 -11.582031 L 49.222656 -11.582031 L 37.640625 -23.164062 L 49.222656 -23.164062 C 55.59375 -23.164062 60.804688 -28.375 60.804688 -34.746094 Z M 49.222656 -46.328125 L 49.222656 -34.746094 L 14.476562 -34.746094 L 14.476562 -46.328125 Z M 49.222656 -46.328125 "/></g></g></g><g fill="#575655" fill-opacity="1"><g transform="translate(261.359792, 142.238299)"><g><path d="M 14.476562 -57.910156 C 8.105469 -57.910156 2.894531 -52.695312 2.894531 -46.328125 L 2.894531 0 L 14.476562 0 L 14.476562 -23.164062 L 49.222656 -23.164062 L 49.222656 0 L 60.804688 0 L 60.804688 -46.328125 C 60.804688 -52.695312 55.59375 -57.910156 49.222656 -57.910156 Z M 14.476562 -46.328125 L 49.222656 -46.328125 L 49.222656 -34.746094 L 14.476562 -34.746094 Z M 14.476562 -46.328125 "/></g></g></g><g fill="#575655" fill-opacity="1"><g transform="translate(325.057219, 142.238299)"><g><path d="M 60.804688 0 L 60.804688 -11.582031 L 14.476562 -11.582031 L 14.476562 -46.328125 L 60.804688 -46.328125 L 60.804688 -57.910156 L 14.476562 -57.910156 C 8.105469 -57.910156 2.894531 -52.695312 2.894531 -46.328125 L 2.894531 -11.582031 C 2.894531 -5.210938 8.105469 0 14.476562 0 Z M 60.804688 0 "/></g></g></g><g fill="#575655" fill-opacity="1"><g transform="translate(388.754645, 142.238299)"><g><path d="M 60.804688 -57.910156 L 46.90625 -57.910156 C 45.3125 -57.910156 43.867188 -57.328125 42.707031 -56.171875 L 21.28125 -34.746094 L 14.476562 -34.746094 L 14.476562 -57.910156 L 2.894531 -57.910156 L 2.894531 0 L 14.476562 0 L 14.476562 -23.164062 L 21.28125 -23.164062 L 42.707031 -1.738281 C 43.867188 -0.578125 45.3125 0 46.90625 0 L 60.804688 0 L 60.804688 -11.582031 L 49.222656 -11.582031 L 31.851562 -28.953125 L 49.222656 -46.328125 L 60.804688 -46.328125 Z M 60.804688 -57.910156 "/></g></g></g><g fill="#575655" fill-opacity="1"><g transform="translate(452.452071, 142.238299)"><g><path d="M 60.804688 -57.910156 L 14.476562 -57.910156 C 8.105469 -57.910156 2.894531 -52.695312 2.894531 -46.328125 L 2.894531 -11.582031 C 2.894531 -5.210938 8.105469 0 14.476562 0 L 60.804688 0 L 60.804688 -11.582031 L 14.476562 -11.582031 L 14.476562 -23.164062 L 60.804688 -23.164062 L 60.804688 -34.746094 L 14.476562 -34.746094 L 14.476562 -46.328125 L 60.804688 -46.328125 Z M 60.804688 -57.910156 "/></g></g></g><g fill="#575655" fill-opacity="1"><g transform="translate(516.149498, 142.238299)"><g><path d="M 60.804688 -46.328125 C 60.804688 -52.695312 55.59375 -57.910156 49.222656 -57.910156 L 2.894531 -57.910156 L 2.894531 0 L 14.476562 0 L 14.476562 -23.164062 L 21.28125 -23.164062 L 42.707031 -1.738281 C 43.867188 -0.578125 45.3125 0 46.90625 0 L 60.804688 0 L 60.804688 -11.582031 L 49.222656 -11.582031 L 37.640625 -23.164062 L 49.222656 -23.164062 C 55.59375 -23.164062 60.804688 -28.375 60.804688 -34.746094 Z M 49.222656 -46.328125 L 49.222656 -34.746094 L 14.476562 -34.746094 L 14.476562 -46.328125 Z M 49.222656 -46.328125 "/></g></g></g><g clip-path="url(#2b370a6fc4)"><path fill="#c5553c" d="M 78.652344 11.046875 C 64.972656 11.046875 53.882812 22.035156 53.882812 35.585938 C 53.882812 49.136719 78.652344 98.578125 78.652344 98.578125 C 78.652344 98.578125 103.421875 49.140625 103.421875 35.585938 C 103.421875 22.035156 92.332031 11.046875 78.652344 11.046875 Z M 78.652344 46.476562 C 72.582031 46.476562 67.660156 41.601562 67.660156 35.585938 C 67.660156 29.574219 72.582031 24.695312 78.652344 24.695312 C 84.722656 24.695312 89.644531 29.574219 89.644531 35.585938 C 89.644531 41.601562 84.722656 46.476562 78.652344 46.476562 Z M 78.652344 46.476562 " fill-opacity="1" fill-rule="nonzero"/></g></svg>